<svg width="19" height="32" viewBox="0 0 19 32" fill="none" xmlns="http://www.w3.org/2000/svg"><path d="M11.189 5.07c0-1.345-.492-2.634-1.367-3.585C8.947.535 7.76 0 6.522 0c-1.237 0-2.424.534-3.3 1.485-.875.95-1.366 2.24-1.366 3.584v14.755C.659 21.151-.007 22.936 0 24.793a7.686 7.686 0 00.782 3.41 7.008 7.008 0 002.176 2.599 6.284 6.284 0 003.05 1.168 6.144 6.144 0 003.196-.543 6.705 6.705 0 002.577-2.125 7.489 7.489 0 001.341-3.197 7.781 7.781 0 00-.214-3.506 7.298 7.298 0 00-1.72-2.976V5.069zm.167 19.723c.01.88-.188 1.747-.575 2.52a5.017 5.017 0 01-1.63 1.897 4.494 4.494 0 01-2.276.795 4.43 4.43 0 01-2.343-.51 4.881 4.881 0 01-1.819-1.685 5.44 5.44 0 01-.833-2.433 5.563 5.563 0 01.364-2.566 5.125 5.125 0 011.467-2.05V5.07c0-.81.296-1.586.823-2.159a2.703 2.703 0 011.988-.894c.746 0 1.46.321 1.988.894.527.573.823 1.35.823 2.16v15.5a5.023 5.023 0 011.49 1.841 5.49 5.49 0 01.533 2.382z" fill="#2D3440"/><path d="M7.534 21.638V5.14c0-.267-.098-.524-.272-.713a.892.892 0 00-.656-.295.892.892 0 00-.656.295 1.054 1.054 0 00-.272.713v16.498a2.85 2.85 0 00-1.473 1.321A3.246 3.246 0 003.863 25c.11.703.447 1.341.949 1.8.502.46 1.137.713 1.794.713a2.66 2.66 0 001.794-.712c.502-.46.838-1.098.949-1.8a3.246 3.246 0 00-.343-2.042 2.85 2.85 0 00-1.473-1.32zM18.667 3.94H13.1v2.016h5.567V3.941zm0 4.032H13.1v2.016h5.567V7.972zm0 4.031H13.1v2.016h5.567v-2.016zm0 4.032H13.1v2.015h5.567v-2.015z" fill="#2D3440"/></svg>